<?xml version="1.0" encoding="UTF-8"?>
<svg xmlns="http://www.w3.org/2000/svg" viewBox="0 0 16 16">
    <path style="line-height:normal;text-indent:0;text-align:start;text-decoration-line:none;text-decoration-style:solid;text-decoration-color:#000;text-transform:none;block-progression:tb;isolation:auto;mix-blend-mode:normal" d="M 7.5 1 C 3.9160714 1 1 3.9160714 1 7.5 C 1 11.083929 3.9160714 14 7.5 14 C 11.083929 14 14 11.083929 14 7.5 C 14 3.9160714 11.083929 1 7.5 1 z M 7.5 2 C 10.543488 2 13 4.4565116 13 7.5 C 13 10.543488 10.543488 13 7.5 13 C 6.6806914 13 5.9067457 12.817616 5.2089844 12.498047 L 6.8085938 10.898438 C 7.0350704 10.944748 7.2593179 11 7.5 11 C 9.427167 11 11 9.427167 11 7.5 C 11 6.9865152 10.887211 6.4979403 10.689453 6.0605469 L 10.390625 5.4023438 L 8 7.7929688 L 7.2070312 7 L 9.5976562 4.609375 L 8.9394531 4.3105469 C 8.5017769 4.1131862 8.0134848 4 7.5 4 C 5.572833 4 4 5.572833 4 7.5 C 4 7.7404692 4.0552834 7.9633259 4.1015625 8.1894531 L 2.5019531 9.7910156 C 2.1823839 9.0932543 2 8.3193084 2 7.5 C 2 4.4565116 4.4565116 2 7.5 2 z M 7.5 5 C 7.5857554 5 7.6569577 5.044184 7.7402344 5.0527344 L 5.7929688 7 L 8 9.2070312 L 9.9472656 7.2597656 C 9.955827 7.3431263 10 7.4142446 10 7.5 C 10 8.886833 8.886833 10 7.5 10 C 7.2476051 10 7.0050903 9.9622418 6.7734375 9.8925781 L 6.4863281 9.8066406 L 4.3125 11.980469 C 3.8124463 11.624514 3.3754863 11.187554 3.0195312 10.6875 L 5.1933594 8.5117188 L 5.1074219 8.2246094 C 5.0379457 7.9944172 5 7.7523949 5 7.5 C 5 6.113167 6.113167 5 7.5 5 z" font-weight="400" font-family="sans-serif" white-space="normal" overflow="visible"/>
</svg>