<?xml version="1.0" encoding="UTF-8"?>
<svg width="20px" height="20px" viewBox="0 0 20 20" version="1.1" xmlns="http://www.w3.org/2000/svg" xmlns:xlink="http://www.w3.org/1999/xlink">
    <!-- Generator: Sketch 52.5 (67469) - http://www.bohemiancoding.com/sketch -->
    <title>Job</title>
    <desc>Created with Sketch.</desc>
    <g id="Text-Styles" stroke="none" stroke-width="1" fill="none" fill-rule="evenodd">
        <g id="Job" fill="#000000" fill-rule="nonzero">
            <path d="M10,0 C4.48626369,0 0,4.48626369 0,10 C0,15.5137369 4.48626369,20 10,20 C15.5137369,20 20,15.5137369 20,10 C20,4.48626369 15.5137369,0 10,0 Z M10,1.53846154 C14.6822892,1.53846154 18.4615385,5.31771015 18.4615385,10 C18.4615385,14.6822892 14.6822892,18.4615385 10,18.4615385 C8.73952523,18.4615385 7.54883954,18.1809477 6.47536062,17.6893031 L8.93629815,15.2283662 C9.28472369,15.2996123 9.62971985,15.3846154 10,15.3846154 C12.9648723,15.3846154 15.3846154,12.9648723 15.3846154,10 C15.3846154,9.21002338 15.2110938,8.45836969 14.9068508,7.78545677 L14.4471154,6.77283662 L10.7692308,10.4507212 L9.54927877,9.23076923 L13.2271634,5.55288462 L12.2145432,5.09314908 C11.5411952,4.78951723 10.7899766,4.61538462 10,4.61538462 C7.03512769,4.61538462 4.61538462,7.03512769 4.61538462,10 C4.61538462,10.3699526 4.700436,10.7128091 4.77163462,11.0606971 L2.31069708,13.5246394 C1.81905215,12.4511605 1.53846154,11.2604745 1.53846154,10 C1.53846154,5.31771015 5.31771015,1.53846154 10,1.53846154 Z M10,6.15384615 C10.1319314,6.15384615 10.2414734,6.22182154 10.3695914,6.234976 L7.37379815,9.23076923 L10.7692308,12.6262018 L13.765024,9.63040862 C13.7781954,9.75865585 13.8461538,9.86806862 13.8461538,10 C13.8461538,12.1335892 12.1335892,13.8461538 10,13.8461538 C9.61170015,13.8461538 9.23860046,13.7880643 8.88221154,13.6808894 L8.44050477,13.5486778 L5.09615385,16.8930292 C4.32684046,16.3454062 3.65459431,15.67316 3.10697108,14.9038462 L6.45132215,11.5564905 L6.31911062,11.1147837 C6.21222415,10.7606418 6.15384615,10.3882998 6.15384615,10 C6.15384615,7.86641077 7.86641077,6.15384615 10,6.15384615 Z" id="Shape"></path>
        </g>
    </g>
</svg>