<?xml version="1.0" encoding="UTF-8"?>
<svg xmlns="http://www.w3.org/2000/svg" viewBox="0 0 16 16">
    <path style="line-height:normal;text-indent:0;text-align:start;text-decoration-line:none;text-decoration-style:solid;text-decoration-color:#000;text-transform:none;block-progression:tb;isolation:auto;mix-blend-mode:normal" d="M 10.498047 1 C 8.6163831 1 7.0835757 2.5025247 7.0117188 4.3671875 C 6.8220599 4.3228336 6.6826115 4.2814992 6.4785156 4.2363281 C 6.0270034 4.1363981 5.6230469 4.0507812 5.6230469 4.0507812 L 5.6113281 4.0488281 L 5.5996094 4.046875 C 4.6412834 3.8924709 3.7131757 4.3297931 3.0664062 4.9765625 L 1.9589844 6.0839844 C 0.77600488 7.2669638 0.71354092 9.1604526 1.765625 10.429688 L 1.5996094 10.595703 C 0.81273905 11.378659 0.80644528 12.663606 1.6113281 13.408203 C 2.4018731 14.184702 3.6836989 14.195943 4.4277344 13.388672 L 4.8710938 12.945312 C 5.2168411 12.967648 5.5984298 12.895884 5.9257812 12.650391 C 6.4631137 12.247143 7.2941315 11.635556 8.0292969 11.085938 C 8.3968796 10.811127 8.7397994 10.551847 9.0136719 10.339844 C 9.2061786 10.190825 9.3123599 10.099046 9.4296875 9.9980469 L 9.4589844 9.9980469 L 9.6054688 9.8535156 C 10.070295 9.3886897 10.093326 8.6442203 9.6894531 8.1425781 L 9.9199219 7.9257812 C 10.111228 7.9582597 10.300329 8 10.5 8 C 12.427167 8 14 6.427167 14 4.5 C 14 3.9564704 13.865556 3.4479373 13.650391 2.9980469 L 13.345703 2.3613281 L 11.019531 4.6875 L 10.3125 3.9804688 L 12.638672 1.6542969 L 12 1.3496094 C 11.55011 1.1344444 11.041576 1 10.498047 1 z M 10.498047 2 C 10.607715 2 10.700825 2.0575526 10.806641 2.0722656 L 8.8984375 3.9804688 L 11.019531 6.1015625 L 12.927734 4.1933594 C 12.942274 4.2985636 13 4.3909901 13 4.5 C 13 5.886833 11.886833 7 10.5 7 C 10.281146 7 10.072868 6.9721573 9.8730469 6.9199219 L 9.6054688 6.8496094 L 9.0253906 7.3945312 L 7.6582031 5.875 L 8.1523438 5.4121094 L 8.078125 5.125 C 8.0267474 4.9269476 7.9980469 4.716529 7.9980469 4.5 C 7.9980469 3.113167 9.1112137 2 10.498047 2 z M 5.0136719 5.0351562 C 5.1594903 5.0142733 5.3036113 5.0134649 5.4394531 5.0351562 L 5.4414062 5.0351562 C 5.4608833 5.0392162 5.8287455 5.1151102 6.2617188 5.2109375 C 6.4721968 5.2575211 6.5794059 5.2887961 6.7734375 5.3359375 L 6.6171875 5.4824219 L 6.2519531 5.8261719 L 6.5878906 6.1816406 L 6.6191406 6.2167969 L 8.8867188 8.734375 L 8.8945312 8.7441406 C 9.0115132 8.8611157 9.0110726 9.0299432 8.8964844 9.1445312 C 8.878236 9.1627798 8.6679712 9.3432069 8.4023438 9.5488281 C 8.1367162 9.7544494 7.7951048 10.011966 7.4296875 10.285156 C 6.6988529 10.831537 5.8688862 11.440857 5.3242188 11.849609 C 5.1958614 11.945877 5.0445244 11.973801 4.875 11.949219 C 4.7054756 11.924637 4.5360456 11.829014 4.4785156 11.771484 L 2.6601562 9.953125 C 1.7878478 9.0808165 1.7962173 7.660814 2.6660156 6.7910156 L 3.7734375 5.6835938 C 4.11751 5.3395211 4.5762166 5.0978052 5.0136719 5.0351562 z M 2.4511719 11.158203 L 3.7714844 12.478516 C 3.797643 12.504674 3.8334198 12.518902 3.8613281 12.542969 L 3.7011719 12.703125 L 3.6933594 12.710938 C 3.3343691 13.100438 2.7209703 13.109528 2.3046875 12.695312 L 2.296875 12.6875 L 2.2890625 12.679688 C 1.8978591 12.322867 1.8887475 11.718557 2.3046875 11.304688 L 2.4511719 11.158203 z" font-weight="400" font-family="sans-serif" white-space="normal" overflow="visible"/>
</svg>