<?xml version="1.0" encoding="UTF-8"?>
<svg width="16px" height="16px" viewBox="0 0 16 16" version="1.1" xmlns="http://www.w3.org/2000/svg" xmlns:xlink="http://www.w3.org/1999/xlink">
    <!-- Generator: Sketch 52.5 (67469) - http://www.bohemiancoding.com/sketch -->
    <title>Work</title>
    <desc>Created with Sketch.</desc>
    <g id="Text-Styles" stroke="none" stroke-width="1" fill="none" fill-rule="evenodd">
        <g id="Work" fill="#000000" fill-rule="nonzero">
            <path d="M11.689904,0 C9.37400997,0 7.48747778,1.84926117 7.39903852,4.14423077 C7.16561218,4.08964135 6.99398338,4.03876825 6.74278843,3.98317305 C6.18708111,3.86018228 5.68990388,3.75480763 5.68990388,3.75480763 L5.67548074,3.75240382 L5.66105772,3.75 C4.48157957,3.55996418 3.33929317,4.09820689 2.54326917,4.89423077 L1.18028849,6.25721157 C-0.275686302,7.71318622 -0.352565022,10.043634 0.942307692,11.6057698 L0.7379808,11.810096 C-0.230475015,12.7737342 -0.238221194,14.3552074 0.752403815,15.2716345 C1.72538228,16.2273255 3.30301403,16.2411606 4.21875003,15.2475963 L4.76442314,14.7019225 C5.18995828,14.7294129 5.65960591,14.641088 6.06249994,14.3389428 C6.72383225,13.8426375 7.74662338,13.0899151 8.65144234,12.4134622 C9.10385182,12.0752332 9.52590695,11.7561194 9.8629808,11.4951926 C10.0999121,11.3117846 10.2305968,11.1988258 10.375,11.0745193 L10.4110577,11.0745193 L10.5913462,10.8966346 C11.16344,10.3245412 11.1917858,9.40827114 10.6947115,8.79086535 L10.9783654,8.5240384 C11.2138191,8.56401194 11.4465588,8.61538462 11.6923077,8.61538462 C14.0642055,8.61538462 16,6.67959015 16,4.30769231 C16,3.6387328 15.8345305,3.01284591 15.569712,2.45913465 L15.1947114,1.67548074 L12.3317305,4.53846154 L11.4615385,3.66826929 L14.3245194,0.805288492 L13.5384615,0.430288492 C12.9847508,0.165470031 12.3588628,0 11.689904,0 Z M11.689904,1.23076923 C11.82488,1.23076923 11.9394769,1.3016032 12.069712,1.31971151 L9.72115385,3.66826929 L12.3317305,6.27884615 L14.680288,3.93028849 C14.6981834,4.05977058 14.7692308,4.17352628 14.7692308,4.30769231 C14.7692308,6.01456369 13.3991791,7.38461538 11.6923077,7.38461538 C11.4229489,7.38461538 11.1666068,7.35034745 10.9206731,7.28605772 L10.5913462,7.19951926 L9.87740382,7.87019225 L8.19471151,6 L8.80288468,5.43028849 L8.71153846,5.07692308 C8.64830449,4.83316628 8.6129808,4.57418954 8.6129808,4.30769231 C8.6129808,2.60082092 9.98303225,1.23076923 11.689904,1.23076923 Z M4.93990388,4.96634609 C5.11937268,4.94064406 5.29675237,4.93964911 5.46394228,4.96634609 L5.46634609,4.96634609 C5.49031791,4.97134302 5.94307138,5.06475102 6.4759616,5.18269231 C6.73501145,5.24002597 6.86696111,5.27851828 7.10576923,5.33653846 L6.91346154,5.51682695 L6.46394228,5.93990388 L6.87740382,6.37740382 L6.91586535,6.42067311 L9.70673083,9.51923077 L9.71634609,9.53124997 C9.86032394,9.67521932 9.85978166,9.88300702 9.71875003,10.0240384 C9.69629046,10.0464982 9.43750302,10.2685623 9.11057698,10.5216346 C8.78365071,10.774707 8.36320591,11.0916505 7.91346154,11.4278843 C7.0139728,12.1003532 5.99247532,12.8502855 5.32211545,13.3533649 C5.16413711,13.4718486 4.97787618,13.5062166 4.76923077,13.4759618 C4.56058535,13.4457071 4.35205612,13.3280172 4.28124997,13.2572111 L2.04326917,11.0192308 C0.969658831,9.94562031 0.979959754,8.19792492 2.05048074,7.12740382 L3.41346154,5.76442314 C3.83693538,5.34094905 4.40149735,5.04345255 4.93990388,4.96634609 Z M1.78605772,12.5024037 L3.41105772,14.1274043 C3.44325292,14.1595988 3.48728591,14.1771102 3.52163458,14.2067311 L3.32451926,14.4038462 L3.31490388,14.4134622 C2.87306966,14.8928468 2.11811729,14.9040345 1.60576923,14.3942302 L1.59615385,14.3846154 L1.58653846,14.3750006 C1.10505735,13.9358363 1.09384308,13.1920702 1.60576923,12.6826929 L1.78605772,12.5024037 Z" id="Shape"></path>
        </g>
    </g>
</svg>