<?xml version="1.0" encoding="UTF-8"?>
<svg width="24px" height="20px" viewBox="0 0 24 20" version="1.1" xmlns="http://www.w3.org/2000/svg" xmlns:xlink="http://www.w3.org/1999/xlink">
    <!-- Generator: Sketch 52.5 (67469) - http://www.bohemiancoding.com/sketch -->
    <title>menu.open() (hamburger)</title>
    <desc>Created with Sketch.</desc>
    <g id="Text-Styles" stroke="none" stroke-width="1" fill="none" fill-rule="evenodd" stroke-linecap="round" stroke-linejoin="round">
        <g id="menu.open()-(hamburger)" transform="translate(2.000000, 2.000000)" fill-rule="nonzero" stroke="#000000" stroke-width="4">
            <polyline id="Path-2" points="0.636107645 0.743415533 2.82987971 0.743415533 8.08702717 0.743415533 8.44771492 0.743415533 9.61130348 0.743415533 10.4734954 0.743415533 13.3639383 0.743415533 13.9568497 0.743415533 14.5497611 0.743415533 15.411953 0.743415533 15.7726408 0.743415533 16.7262399 0.743415533 17.0869276 0.743415533 17.4476154 0.743415533 18.1344044 0.743415533 18.6235563 0.743415533 18.7693137 0.743415533 18.920012 0.743415533 19.0707103 0.743415533 19.2164676 0.743415533 19.0682398 0.743415533 18.9027187 0.743415533 18.7371976 0.743415533"></polyline>
            <polyline id="Path-2" points="0.869565217 8 3.06333728 8 8.32048474 8 8.68117249 8 9.84476105 8 10.706953 8 13.5973959 8 14.1903073 8 14.7832187 8 15.6454106 8 16.0060984 8 16.9596975 8 17.3203852 8 17.681073 8 18.367862 8 18.8570138 8 19.0027712 8 19.1534695 8 19.3041678 8 19.4499252 8 19.3016974 8 19.1361763 8 18.9706552 8"></polyline>
            <polyline id="Path-2" points="0.869565217 15.5324465 3.06333728 15.5324465 8.32048474 15.5324465 8.68117249 15.5324465 9.84476105 15.5324465 10.706953 15.5324465 13.5973959 15.5324465 14.1903073 15.5324465 14.7832187 15.5324465 15.6454106 15.5324465 16.0060984 15.5324465 16.9596975 15.5324465 17.3203852 15.5324465 17.681073 15.5324465 18.367862 15.5324465 18.8570138 15.5324465 19.0027712 15.5324465 19.1534695 15.5324465 19.3041678 15.5324465 19.4499252 15.5324465 19.3016974 15.5324465 19.1361763 15.5324465 18.9706552 15.5324465"></polyline>
        </g>
    </g>
</svg>