<?xml version="1.0" encoding="UTF-8"?>
<svg width="22px" height="22px" viewBox="0 0 22 22" version="1.1" xmlns="http://www.w3.org/2000/svg" xmlns:xlink="http://www.w3.org/1999/xlink">
    <!-- Generator: Sketch 52.5 (67469) - http://www.bohemiancoding.com/sketch -->
    <title>Work@1x</title>
    <desc>Created with Sketch.</desc>
    <g id="Text-Styles" stroke="none" stroke-width="1" fill="none" fill-rule="evenodd">
        <g id="Work" fill="#000000" fill-rule="nonzero">
            <path d="M16.073618,0 C12.8892637,0 10.295282,2.54273411 10.173678,5.69831731 C9.85271675,5.62325686 9.61672715,5.55330634 9.27133409,5.47686294 C8.50723652,5.30775063 7.82361783,5.16286049 7.82361783,5.16286049 L7.80378602,5.15955525 L7.78395437,5.15625 C6.16217191,4.89495075 4.59152811,5.63503448 3.49699511,6.72956731 L1.62289668,8.60366591 C-0.379068665,10.605631 -0.484776905,13.8099967 1.29567308,15.9579335 L1.0147236,16.238882 C-0.316903146,17.5638845 -0.327554142,19.7384102 1.03455525,20.9984974 C2.37240063,22.3125726 4.54164429,22.3315958 5.80078129,20.9654449 L6.55108182,20.2151434 C7.13619263,20.2529428 7.78195812,20.131496 8.33593742,19.7160463 C9.24526934,19.0336266 10.6516072,17.9986332 11.8957332,17.0685105 C12.5177962,16.6034457 13.0981221,16.1646642 13.5615986,15.8058898 C13.8873792,15.5537038 14.0670706,15.3983855 14.265625,15.227464 L14.3152044,15.227464 L14.563101,14.9828726 C15.34973,14.1962441 15.3887055,12.9363728 14.7052283,12.0874399 L15.0952524,11.7205528 C15.4190012,11.7755164 15.7390183,11.8461538 16.0769231,11.8461538 C19.3382826,11.8461538 22,9.18443646 22,5.92307692 C22,5.0032576 21.7724794,4.14266312 21.408354,3.38131014 L20.8927282,2.30378602 L16.9561294,6.24038462 L15.7596154,5.04387028 L19.6962142,1.10727168 L18.6153846,0.591646677 C17.8540323,0.227521292 16.9934363,0 16.073618,0 Z M16.073618,1.69230769 C16.25921,1.69230769 16.4167808,1.7897044 16.595854,1.81460332 L13.3665865,5.04387028 L16.9561294,8.63341346 L20.185396,5.40414668 C20.2100022,5.58218455 20.3076923,5.73859863 20.3076923,5.92307692 C20.3076923,8.27002508 18.4238712,10.1538462 16.0769231,10.1538462 C15.7065548,10.1538462 15.3540843,10.1067277 15.0159255,10.0183294 L14.563101,9.89933898 L13.5814302,10.8215143 L11.2677283,8.25 L12.1039664,7.46664668 L11.9783654,6.98076923 C11.8914187,6.64560363 11.8428486,6.28951062 11.8428486,5.92307692 C11.8428486,3.57612877 13.7266693,1.69230769 16.073618,1.69230769 Z M6.79236783,6.82872588 C7.03913743,6.79338558 7.28303451,6.79201752 7.51292063,6.82872588 L7.51622588,6.82872588 C7.54918712,6.83559665 8.17172315,6.96403265 8.9044472,7.12620192 C9.26064074,7.20503571 9.44207152,7.25796263 9.77043269,7.33774038 L9.50600962,7.58563706 L8.88792063,8.16736783 L9.45643025,8.76893025 L9.50931486,8.82842552 L13.3467549,13.0889423 L13.3599759,13.1054687 C13.5579454,13.3034266 13.5571998,13.5891346 13.3632813,13.7830528 C13.3323994,13.813935 12.9765666,14.1192732 12.5270434,14.4672476 C12.0775197,14.8152221 11.4994081,15.2510194 10.8810096,15.7133409 C9.6442126,16.6379857 8.23965357,17.6691426 7.31790874,18.3608768 C7.10068852,18.5237918 6.84457975,18.5710478 6.55769231,18.5294475 C6.27080486,18.4878472 5.98407717,18.3260237 5.88671871,18.2286652 L2.80949511,15.1514423 C1.33328089,13.6752279 1.34744466,11.2721468 2.81941102,9.80018025 L4.69350962,7.92608182 C5.27578615,7.34380494 6.05205886,6.93474726 6.79236783,6.82872588 Z M2.45582937,17.1908051 L4.69020437,19.4251809 C4.73447277,19.4694483 4.79501812,19.4935265 4.84224755,19.5342552 L4.57121398,19.8052885 L4.55799283,19.8185105 C3.95047078,20.4776643 2.91241128,20.4930474 2.20793269,19.7920665 L2.19471154,19.7788462 L2.18149038,19.7656258 C1.51945386,19.1617749 1.50403423,18.1390965 2.20793269,17.4387028 L2.45582937,17.1908051 Z" id="Shape"></path>
        </g>
    </g>
</svg>