<?xml version="1.0" encoding="UTF-8"?>
<svg width="22px" height="22px" viewBox="0 0 22 22" version="1.1" xmlns="http://www.w3.org/2000/svg" xmlns:xlink="http://www.w3.org/1999/xlink">
    <!-- Generator: Sketch 52.5 (67469) - http://www.bohemiancoding.com/sketch -->
    <title>check</title>
    <desc>Created with Sketch.</desc>
    <g id="Text-Styles" stroke="none" stroke-width="1" fill="none" fill-rule="evenodd">
        <g id="check" fill="#000000">
            <path d="M11,0 C4.92530612,0 0,4.92530612 0,11 C0,17.0746939 4.92530612,22 11,22 C17.0746939,22 22,17.0746939 22,11 C22,4.92530612 17.0746939,0 11,0 Z M19.25,11 C19.25,15.5571429 15.5571429,19.25 11,19.25 C6.44285714,19.25 2.75,15.5571429 2.75,11 C2.75,6.44285714 6.44285714,2.75 11,2.75 C15.5571429,2.75 19.25,6.44285714 19.25,11 Z" id="Shape" fill-rule="nonzero"></path>
            <polygon id="Path" points="10.0279592 11.9720408 7.11183673 9.05591837 5.1655102 11 8.08163265 13.9161224 10.0257143 15.8602041 11.9697959 13.9161224 17.8042857 8.08163265 15.8602041 6.13755102"></polygon>
        </g>
    </g>
</svg>