<?xml version="1.0" encoding="UTF-8"?>
<svg width="35px" height="22px" viewBox="0 0 35 22" version="1.1" xmlns="http://www.w3.org/2000/svg" xmlns:xlink="http://www.w3.org/1999/xlink">
    <!-- Generator: Sketch 52.5 (67469) - http://www.bohemiancoding.com/sketch -->
    <title>education</title>
    <desc>Created with Sketch.</desc>
    <g id="Text-Styles" stroke="none" stroke-width="1" fill="none" fill-rule="evenodd">
        <g id="education" fill="#000000" fill-rule="nonzero">
            <path d="M33.8235652,5.6890087 L17.7341043,0.204121739 C17.4737391,0.115356522 17.1919478,0.115356522 16.9315826,0.204121739 L0.842121739,5.6890087 C0.338608696,5.8608 -0.000191304348,6.33408696 1.32348898e-23,6.86629565 C0.000191304348,7.39869565 0.338991304,7.8717913 0.843078261,8.0432 L7.09758261,10.1706957 L7.09758261,16.6526609 C7.09758261,16.9625739 7.21313043,17.2612 7.42184348,17.4901913 C9.97690435,20.2941391 13.6168522,21.9022435 17.4079304,21.9022435 C21.1617043,21.9022435 24.6493739,20.3989739 27.2281565,17.6692522 C27.4464348,17.4383478 27.5677217,17.1328348 27.5677217,16.8152696 L27.5677217,10.1802609 L30.1499478,9.29796522 L30.1499478,12.4244522 C29.8591652,12.6521043 29.671687,13.0054435 29.671687,13.4031652 L29.671687,16.4362957 C29.671687,17.1230783 30.2283826,17.6797739 30.9151652,17.6797739 C31.6019478,17.6797739 32.1586435,17.1230783 32.1586435,16.4362957 L32.1586435,13.4031652 C32.1586435,13.0052522 31.9711652,12.651913 31.6803826,12.4244522 L31.6803826,8.77513043 L33.8239478,8.04281739 C34.3272696,7.87083478 34.6654957,7.39754783 34.6653043,6.86572174 C34.6654957,6.33370435 34.3270783,5.8606087 33.8235652,5.6890087 Z M25.0809565,16.3058261 C23.0150609,18.314713 20.3090609,19.4150957 17.4081217,19.4150957 C14.4719826,19.4150957 11.6471826,18.2328348 9.58453913,16.1560348 L9.58453913,11.0166435 L16.968313,13.528087 C17.0982087,13.5722783 17.2334609,13.5942783 17.368713,13.5942783 C17.5045391,13.5942783 17.6405565,13.572087 17.7708348,13.527513 L25.0811478,11.0298435 L25.0811478,16.3058261 L25.0809565,16.3058261 Z M17.3677565,11.037113 L5.10093913,6.86457391 L17.3327478,2.69471304 L29.5722087,6.86725217 L17.3677565,11.037113 Z" id="Shape"></path>
        </g>
    </g>
</svg>