<?xml version="1.0" encoding="UTF-8"?>
<svg width="22px" height="22px" viewBox="0 0 22 22" version="1.1" xmlns="http://www.w3.org/2000/svg" xmlns:xlink="http://www.w3.org/1999/xlink">
    <!-- Generator: Sketch 52.5 (67469) - http://www.bohemiancoding.com/sketch -->
    <title>Job</title>
    <desc>Created with Sketch.</desc>
    <g id="Text-Styles" stroke="none" stroke-width="1" fill="none" fill-rule="evenodd">
        <g id="Job" fill="#000000" fill-rule="nonzero">
            <path d="M11,0 C4.93489006,0 0,4.93489006 0,11 C0,17.0651106 4.93489006,22 11,22 C17.0651106,22 22,17.0651106 22,11 C22,4.93489006 17.0651106,0 11,0 Z M11,1.69230769 C16.1505182,1.69230769 20.3076923,5.84948117 20.3076923,11 C20.3076923,16.1505182 16.1505182,20.3076923 11,20.3076923 C9.61347775,20.3076923 8.30372349,19.9990425 7.12289668,19.4582334 L9.82992797,16.7512028 C10.2131961,16.8295735 10.5926918,16.9230769 11,16.9230769 C14.2613595,16.9230769 16.9230769,14.2613595 16.9230769,11 C16.9230769,10.1310257 16.7322032,9.30420666 16.3975358,8.56400245 L15.8918269,7.45012028 L11.8461538,11.4957934 L10.5042066,10.1538462 L14.5498797,6.10817308 L13.4359976,5.60246398 C12.6953148,5.26846895 11.8689743,5.07692308 11,5.07692308 C7.73864046,5.07692308 5.07692308,7.73864046 5.07692308,11 C5.07692308,11.4069479 5.1704796,11.78409 5.24879808,12.1667668 L2.54176678,14.8771033 C2.00095737,13.6962765 1.69230769,12.3865219 1.69230769,11 C1.69230769,5.84948117 5.84948117,1.69230769 11,1.69230769 Z M11,6.76923077 C11.1451245,6.76923077 11.2656207,6.84400369 11.4065505,6.8584736 L8.11117797,10.1538462 L11.8461538,13.888822 L15.1415264,10.5934495 C15.1560149,10.7345214 15.2307692,10.8548755 15.2307692,11 C15.2307692,13.3469482 13.3469482,15.2307692 11,15.2307692 C10.5728702,15.2307692 10.1624605,15.1668707 9.77043269,15.0489783 L9.28455525,14.9035456 L5.60576923,18.5823322 C4.75952451,17.9799468 4.02005374,17.240476 3.41766818,16.3942308 L7.09645437,12.7121395 L6.95102168,12.2262621 C6.83344657,11.836706 6.76923077,11.4271298 6.76923077,11 C6.76923077,8.65305185 8.65305185,6.76923077 11,6.76923077 Z" id="Shape"></path>
        </g>
    </g>
</svg>